<svg xmlns="http://www.w3.org/2000/svg" width="373.29" height="36.76" viewBox="0 0 373.29 36.76">
  <g id="Layer_2-2" transform="translate(0 -0.005)" opacity="0.73">
    <path id="Path_1326" data-name="Path 1326" d="M363.17,28.64Zm-.01,0Z" fill="#fff"/>
    <path id="Path_1327" data-name="Path 1327" d="M370.65,21.41c-.3.38-1.99,2.33-3.63,4.13-3.39,3.72-3.78,3.75-4.02,3.78h-.05c-2.86-1.87-8.73-5.68-4.96-8.98.69-.43,8.4-9.58,9.26-8.94,2.03.65,5.5,3.83,6,5.68.34,1.83-1.58,3.14-2.6,4.32Z" fill="#fff"/>
    <path id="Path_1328" data-name="Path 1328" d="M362.01,14a8.082,8.082,0,0,1-1.19.94,2.727,2.727,0,0,1-1.41.47,2.573,2.573,0,0,1-1.73-.85c-2.84-2.91-6.37-5.59-8.55-8.98.64-1.82,2.27-3.25,3.57-4.63.76-.9,2.13-1.36,2.84-.45.37.28,7.29,6.68,7.47,6.54C366.59,9.15,365.67,10.59,362.01,14Z" fill="#fff"/>
    <path id="Path_1329" data-name="Path 1329" d="M352.27,16.38c-.51.3-8.58,9.6-9.11,8.94-1.96-.37-5.74-3.96-6.15-5.69-.34-1.83,1.58-3.14,2.6-4.32.3-.38,1.99-2.33,3.63-4.13,3.39-3.72,3.78-3.75,4.02-3.78,2.89,1.78,8.77,5.7,5.01,8.97Z" fill="#fff"/>
    <path id="Path_1330" data-name="Path 1330" d="M355.84,36.76c-1.7-.32-7.02-6.35-8.58-7.07-.98-.63-2.2-1.42-2.3-2.41-.39-.93,3.12-5.12,5.39-5.9,2.07-.83,8.61,7.42,10.51,9.1,1.42.9-3.89,6.48-5.01,6.28Z" fill="#fff"/>
    <path id="Path_1331" data-name="Path 1331" d="M250.84,28.64Zm0,0Z" fill="#fff"/>
    <path id="Path_1332" data-name="Path 1332" d="M258.33,21.41c-.3.38-1.99,2.33-3.63,4.13-3.39,3.72-3.78,3.75-4.02,3.78h-.05c-2.86-1.87-8.73-5.68-4.96-8.98.69-.43,8.4-9.58,9.26-8.94,2.03.65,5.5,3.83,6,5.68.34,1.83-1.58,3.14-2.6,4.32Z" fill="#fff"/>
    <path id="Path_1333" data-name="Path 1333" d="M249.69,14a8.082,8.082,0,0,1-1.19.94,2.727,2.727,0,0,1-1.41.47,2.573,2.573,0,0,1-1.73-.85c-2.84-2.91-6.37-5.59-8.55-8.98.64-1.82,2.27-3.25,3.57-4.63.76-.9,2.13-1.36,2.84-.45.37.28,7.29,6.68,7.47,6.54C254.27,9.15,253.35,10.59,249.69,14Z" fill="#fff"/>
    <path id="Path_1334" data-name="Path 1334" d="M239.95,16.38c-.51.3-8.58,9.6-9.11,8.94-1.96-.37-5.74-3.96-6.15-5.69-.34-1.83,1.58-3.14,2.6-4.32.3-.38,1.99-2.33,3.63-4.13,3.39-3.72,3.78-3.75,4.02-3.78,2.89,1.78,8.77,5.7,5.01,8.97Z" fill="#fff"/>
    <path id="Path_1335" data-name="Path 1335" d="M243.51,36.76c-1.7-.32-7.02-6.35-8.58-7.07-.98-.63-2.2-1.42-2.3-2.41-.39-.93,3.12-5.12,5.39-5.9,2.07-.83,8.61,7.42,10.51,9.1,1.42.9-3.89,6.48-5.01,6.28Z" fill="#fff"/>
    <path id="Path_1336" data-name="Path 1336" d="M138.52,28.64Zm-.01,0Z" fill="#fff"/>
    <path id="Path_1337" data-name="Path 1337" d="M146,21.41c-.3.38-1.99,2.33-3.63,4.13-3.39,3.72-3.78,3.75-4.02,3.78h-.05c-2.86-1.87-8.73-5.68-4.96-8.98.69-.43,8.4-9.58,9.26-8.94,2.03.65,5.5,3.83,6,5.68.34,1.83-1.58,3.14-2.6,4.32Z" fill="#fff"/>
    <path id="Path_1338" data-name="Path 1338" d="M137.37,14a8.082,8.082,0,0,1-1.19.94,2.727,2.727,0,0,1-1.41.47,2.573,2.573,0,0,1-1.73-.85c-2.84-2.91-6.37-5.59-8.55-8.98.64-1.82,2.27-3.25,3.57-4.63.76-.9,2.13-1.36,2.84-.45.37.28,7.29,6.68,7.47,6.54C141.95,9.15,141.03,10.59,137.37,14Z" fill="#fff"/>
    <path id="Path_1339" data-name="Path 1339" d="M127.62,16.38c-.51.3-8.58,9.6-9.11,8.94-1.96-.37-5.74-3.96-6.15-5.69-.34-1.83,1.58-3.14,2.6-4.32.3-.38,1.99-2.33,3.63-4.13,3.39-3.72,3.78-3.75,4.02-3.78,2.89,1.78,8.77,5.7,5.01,8.97Z" fill="#fff"/>
    <path id="Path_1340" data-name="Path 1340" d="M131.19,36.76c-1.7-.32-7.02-6.35-8.58-7.07-.98-.63-2.2-1.42-2.3-2.41-.39-.93,3.12-5.12,5.39-5.9,2.07-.83,8.61,7.42,10.51,9.1,1.42.9-3.89,6.48-5.01,6.28Z" fill="#fff"/>
    <path id="Path_1341" data-name="Path 1341" d="M82.35,28.64Zm0,0Z" fill="#fff"/>
    <path id="Path_1342" data-name="Path 1342" d="M89.84,21.41c-.3.38-1.99,2.33-3.63,4.13-3.39,3.72-3.78,3.75-4.02,3.78h-.05c-2.86-1.87-8.73-5.68-4.96-8.98.69-.43,8.4-9.58,9.26-8.94,2.03.65,5.5,3.83,6,5.68.34,1.83-1.58,3.14-2.6,4.32Z" fill="#fff"/>
    <path id="Path_1343" data-name="Path 1343" d="M81.2,14a8.082,8.082,0,0,1-1.19.94,2.727,2.727,0,0,1-1.41.47,2.573,2.573,0,0,1-1.73-.85c-2.84-2.91-6.37-5.59-8.55-8.98.64-1.82,2.27-3.25,3.57-4.63.76-.9,2.13-1.36,2.84-.45.37.28,7.29,6.68,7.47,6.54,3.58,2.11,2.66,3.55-1,6.96Z" fill="#fff"/>
    <path id="Path_1344" data-name="Path 1344" d="M71.46,16.38c-.51.3-8.58,9.6-9.11,8.94-1.96-.37-5.74-3.96-6.15-5.69-.34-1.83,1.58-3.14,2.6-4.32.3-.38,1.99-2.33,3.63-4.13,3.39-3.72,3.78-3.75,4.02-3.78,2.89,1.78,8.77,5.7,5.01,8.97Z" fill="#fff"/>
    <path id="Path_1345" data-name="Path 1345" d="M75.03,36.76c-1.7-.32-7.02-6.35-8.58-7.07-.98-.63-2.2-1.42-2.3-2.41-.39-.93,3.12-5.12,5.39-5.9,2.07-.83,8.61,7.42,10.51,9.1,1.42.9-3.89,6.48-5.01,6.28Z" fill="#fff"/>
    <path id="Path_1346" data-name="Path 1346" d="M26.19,28.64Zm0,0Z" fill="#fff"/>
    <path id="Path_1347" data-name="Path 1347" d="M33.68,21.41c-.3.38-1.99,2.33-3.63,4.13-3.39,3.72-3.78,3.75-4.02,3.78h-.05c-2.86-1.87-8.73-5.68-4.96-8.98.69-.43,8.4-9.58,9.26-8.94,2.03.65,5.5,3.83,6,5.68.34,1.83-1.58,3.14-2.6,4.32Z" fill="#fff"/>
    <path id="Path_1348" data-name="Path 1348" d="M25.04,14a8.082,8.082,0,0,1-1.19.94,2.727,2.727,0,0,1-1.41.47,2.573,2.573,0,0,1-1.73-.85c-2.84-2.91-6.37-5.59-8.55-8.98.64-1.82,2.27-3.25,3.57-4.63.76-.9,2.13-1.36,2.84-.45.37.28,7.29,6.68,7.47,6.54,3.58,2.11,2.66,3.55-1,6.96Z" fill="#fff"/>
    <path id="Path_1349" data-name="Path 1349" d="M15.3,16.38c-.51.3-8.58,9.6-9.11,8.94C4.23,24.95.45,21.36.04,19.63c-.34-1.83,1.58-3.14,2.6-4.32.3-.38,1.99-2.33,3.63-4.13,3.39-3.72,3.78-3.75,4.02-3.78,2.89,1.78,8.77,5.7,5.01,8.97Z" fill="#fff"/>
    <path id="Path_1350" data-name="Path 1350" d="M18.86,36.76c-1.7-.32-7.02-6.35-8.58-7.07-.98-.63-2.2-1.42-2.3-2.41-.39-.93,3.12-5.12,5.39-5.9,2.07-.83,8.61,7.42,10.51,9.1,1.42.9-3.89,6.48-5.01,6.28Z" fill="#fff"/>
    <path id="Path_1351" data-name="Path 1351" d="M194.68,28.64Zm0,0Z" fill="#fff"/>
    <path id="Path_1352" data-name="Path 1352" d="M202.16,21.41c-.3.38-1.99,2.33-3.63,4.13-3.39,3.72-3.78,3.75-4.02,3.78h-.05c-2.86-1.87-8.73-5.68-4.96-8.98.69-.43,8.4-9.58,9.26-8.94,2.03.65,5.5,3.83,6,5.68.34,1.83-1.58,3.14-2.6,4.32Z" fill="#fff"/>
    <path id="Path_1353" data-name="Path 1353" d="M193.53,14a8.082,8.082,0,0,1-1.19.94,2.727,2.727,0,0,1-1.41.47,2.573,2.573,0,0,1-1.73-.85c-2.84-2.91-6.37-5.59-8.55-8.98.64-1.82,2.27-3.25,3.57-4.63.76-.9,2.13-1.36,2.84-.45.37.28,7.29,6.68,7.47,6.54C198.11,9.15,197.19,10.59,193.53,14Z" fill="#fff"/>
    <path id="Path_1354" data-name="Path 1354" d="M183.79,16.38c-.51.3-8.58,9.6-9.11,8.94-1.96-.37-5.74-3.96-6.15-5.69-.34-1.83,1.58-3.14,2.6-4.32.3-.38,1.99-2.33,3.63-4.13,3.39-3.72,3.78-3.75,4.02-3.78,2.89,1.78,8.77,5.7,5.01,8.97Z" fill="#fff"/>
    <path id="Path_1355" data-name="Path 1355" d="M187.35,36.76c-1.7-.32-7.02-6.35-8.58-7.07-.98-.63-2.2-1.42-2.3-2.41-.39-.93,3.12-5.12,5.39-5.9,2.07-.83,8.61,7.42,10.51,9.1,1.42.9-3.89,6.48-5.01,6.28Z" fill="#fff"/>
    <path id="Path_1356" data-name="Path 1356" d="M307,28.64Zm0,0Z" fill="#fff"/>
    <path id="Path_1357" data-name="Path 1357" d="M314.49,21.41c-.3.38-1.99,2.33-3.63,4.13-3.39,3.72-3.78,3.75-4.02,3.78h-.05c-2.86-1.87-8.73-5.68-4.96-8.98.69-.43,8.4-9.58,9.26-8.94,2.03.65,5.5,3.83,6,5.68.34,1.83-1.58,3.14-2.6,4.32Z" fill="#fff"/>
    <path id="Path_1358" data-name="Path 1358" d="M305.85,14a8.082,8.082,0,0,1-1.19.94,2.727,2.727,0,0,1-1.41.47,2.573,2.573,0,0,1-1.73-.85c-2.84-2.91-6.37-5.59-8.55-8.98.64-1.82,2.27-3.25,3.57-4.63.76-.9,2.13-1.36,2.84-.45.37.28,7.29,6.68,7.47,6.54C310.43,9.15,309.51,10.59,305.85,14Z" fill="#fff"/>
    <path id="Path_1359" data-name="Path 1359" d="M296.11,16.38c-.51.3-8.58,9.6-9.11,8.94-1.96-.37-5.74-3.96-6.15-5.69-.34-1.83,1.58-3.14,2.6-4.32.3-.38,1.99-2.33,3.63-4.13,3.39-3.72,3.78-3.75,4.02-3.78,2.89,1.78,8.77,5.7,5.01,8.97Z" fill="#fff"/>
    <path id="Path_1360" data-name="Path 1360" d="M299.67,36.76c-1.7-.32-7.02-6.35-8.58-7.07-.98-.63-2.2-1.42-2.3-2.41-.39-.93,3.12-5.12,5.39-5.9,2.07-.83,8.61,7.42,10.51,9.1,1.42.9-3.89,6.48-5.01,6.28Z" fill="#fff"/>
  </g>
</svg>
